<?xml version="1.0" standalone="no"?>
<!DOCTYPE svg PUBLIC "-//W3C//DTD SVG 20010904//EN"
 "http://www.w3.org/TR/2001/REC-SVG-20010904/DTD/svg10.dtd">
<svg version="1.0" xmlns="http://www.w3.org/2000/svg"
 width="1563.000000pt" height="623.000000pt" viewBox="0 0 1563.000000 623.000000"
 preserveAspectRatio="xMidYMid meet">

<g transform="translate(0.000000,623.000000) scale(0.100000,-0.100000)"
fill="#000000" stroke="none">
<path d="M5742 6211 c-229 -79 -227 -401 2 -477 126 -42 278 32 314 155 44
146 -28 284 -171 326 -64 19 -80 19 -145 -4z m158 -86 c70 -36 110 -143 80
-215 -35 -83 -136 -128 -218 -95 -177 71 -129 325 61 325 26 0 61 -7 77 -15z"/>
<path d="M2715 6204 c-80 -18 -211 -77 -269 -122 l-40 -30 -54 19 c-180 62
-405 39 -563 -57 -120 -72 -225 -220 -264 -369 -38 -143 -27 -332 26 -467 l20
-50 -30 -47 c-111 -172 -156 -397 -116 -569 30 -126 112 -246 215 -312 32 -20
50 -39 50 -51 0 -18 -121 -949 -186 -1434 -14 -104 -31 -246 -38 -314 -10
-100 -16 -126 -31 -137 -10 -8 -22 -14 -25 -14 -18 0 -33 -63 -34 -138 -1 -95
6 -83 -157 -257 -97 -103 -1150 -1245 -1191 -1292 l-20 -21 223 -244 c122
-133 225 -244 228 -245 3 -1 335 296 736 661 402 365 734 660 738 656 14 -12
20 -182 8 -245 -6 -33 -28 -94 -48 -135 -42 -86 -44 -116 -8 -147 55 -49 113
-15 164 95 59 130 74 271 47 437 -8 44 -12 81 -11 83 2 2 21 -21 44 -50 58
-77 100 -173 123 -285 17 -84 19 -119 14 -245 l-6 -146 26 -21 c33 -26 85 -27
108 -3 9 11 20 50 26 93 34 264 -26 523 -163 704 l-45 60 25 13 c33 18 399 70
844 121 195 23 477 55 627 72 l272 32 73 -37 c169 -84 323 -88 478 -12 l67 33
15 -31 c38 -82 161 -209 251 -261 165 -95 383 -92 540 9 103 67 203 203 222
302 5 28 11 33 66 48 213 59 388 225 455 431 63 197 17 429 -118 597 -45 56
-144 148 -160 148 -3 0 -9 47 -12 104 -6 114 -41 238 -93 331 -46 83 -167 196
-255 239 l-77 36 34 67 c18 37 38 88 44 115 15 70 12 197 -5 254 -9 29 -11 50
-5 52 19 7 108 129 139 191 46 90 71 198 71 300 0 104 -18 181 -67 281 -50
104 -178 232 -283 283 -81 40 -211 77 -269 77 -34 0 -40 5 -79 64 -49 75 -156
177 -235 224 -122 73 -284 109 -409 92 -92 -13 -127 -24 -209 -67 -128 -66
-245 -200 -295 -337 -23 -65 -15 -60 -121 -80 -30 -5 -34 -2 -52 32 -27 53
-103 135 -155 168 l-44 28 -5 110 c-6 136 -37 232 -107 339 -83 126 -186 206
-327 253 -99 33 -236 41 -338 18z m1828 -579 c118 -25 211 -77 302 -169 44
-45 91 -102 103 -128 35 -72 44 -78 120 -78 134 0 265 -55 373 -158 221 -208
220 -533 -2 -767 l-71 -75 27 -85 c23 -70 27 -96 22 -148 -7 -76 -37 -160 -76
-212 l-29 -39 -88 -2 c-152 -3 -278 -44 -397 -130 l-49 -35 -61 26 c-128 53
-270 68 -402 40 -94 -20 -221 -84 -289 -146 -54 -49 -57 -51 -88 -40 -126 44
-275 177 -335 298 -36 72 -38 83 -38 167 0 80 4 98 28 149 38 76 32 99 -30
122 -166 64 -280 373 -214 584 62 199 282 361 491 361 69 0 85 11 100 67 31
113 108 236 191 302 123 98 257 129 412 96z m-1855 -234 c145 -75 207 -247
140 -392 -87 -188 -320 -237 -471 -99 -70 64 -101 131 -100 220 0 129 78 241
200 286 56 21 177 13 231 -15z m572 -948 c36 -113 126 -244 202 -299 l28 -19
-15 -49 c-22 -71 -19 -200 5 -278 47 -152 212 -323 388 -402 32 -14 41 -23 36
-35 -75 -178 -89 -364 -39 -527 15 -48 14 -49 -8 -64 -47 -30 -101 -96 -130
-159 -76 -162 -31 -453 98 -632 39 -54 43 -69 19 -69 -23 0 -877 -96 -1069
-121 -408 -51 -551 -76 -613 -108 -53 -27 -61 -28 -79 -16 -11 8 -102 55 -201
105 -195 97 -270 153 -319 237 l-26 45 18 75 c9 41 23 139 30 217 8 77 25 227
39 331 14 105 62 467 106 805 44 338 82 620 85 626 2 9 19 8 62 -2 32 -8 88
-14 126 -14 49 0 67 -4 67 -13 0 -31 64 -138 104 -175 54 -49 140 -95 227
-118 88 -24 279 -24 374 0 127 32 231 90 316 175 116 117 167 244 156 396 -3
44 -9 90 -13 103 -11 39 14 24 26 -15z m1795 -1442 c59 -26 131 -95 163 -156
23 -43 27 -62 27 -140 0 -79 -4 -97 -27 -142 -61 -115 -163 -178 -288 -178
-65 0 -85 4 -143 33 -121 60 -183 167 -175 305 7 146 103 261 245 297 52 13
146 4 198 -19z m-3579 -1141 c54 -67 133 -127 233 -177 117 -58 157 -87 178
-126 15 -29 14 -31 -19 -63 -67 -66 -1393 -1264 -1399 -1264 -4 0 -71 70 -149
156 l-142 155 19 22 c182 205 1233 1337 1241 1336 4 0 21 -18 38 -39z"/>
<path d="M4337 4991 c-309 -102 -396 -489 -160 -712 219 -207 576 -124 687
161 27 68 32 173 12 250 -33 128 -114 226 -235 283 -84 40 -215 48 -304 18z
m260 -135 c149 -76 211 -253 140 -399 -52 -105 -138 -159 -262 -165 -75 -4
-84 -2 -145 30 -243 126 -210 468 53 554 59 20 155 11 214 -20z"/>
<path d="M273 4722 c-71 -25 -128 -65 -163 -113 -128 -177 -73 -407 122 -511
37 -19 58 -23 143 -23 117 0 167 19 239 91 62 62 88 123 94 219 5 101 -19 172
-84 244 -88 97 -232 136 -351 93z m184 -123 c42 -13 109 -87 122 -135 16 -56
13 -93 -10 -144 -27 -60 -45 -79 -104 -106 -87 -41 -166 -27 -238 44 -118 115
-58 312 108 353 32 8 70 4 122 -12z"/>
<path d="M7213 3565 c-392 -71 -702 -379 -644 -641 21 -90 76 -136 181 -150
53 -7 53 -7 45 17 -4 13 -10 72 -12 131 -4 81 -1 121 12 165 26 90 73 169 135
226 103 96 223 143 390 154 151 10 233 -26 282 -120 17 -35 20 -54 16 -132 -3
-79 -9 -102 -36 -157 -61 -124 -171 -214 -254 -206 l-35 3 54 250 c29 138 52
253 50 256 -2 5 -325 -36 -331 -42 -2 -2 -69 -315 -150 -696 -81 -381 -150
-702 -153 -713 -5 -19 -1 -20 160 -20 l164 0 23 108 c12 59 53 249 90 422 l66
315 62 3 c71 3 95 -7 122 -51 35 -56 27 -137 -36 -388 -65 -256 -73 -339 -38
-386 28 -38 68 -56 135 -61 49 -4 208 20 231 35 5 2 -3 14 -17 25 -67 52 -71
134 -19 335 20 76 42 163 49 193 47 200 17 323 -93 379 l-35 18 36 22 c53 33
122 114 157 184 81 164 48 325 -87 428 -121 93 -325 129 -520 94z"/>
<path d="M11336 3488 c-52 -11 -99 -48 -121 -94 -23 -49 -17 -143 12 -182 66
-90 185 -104 267 -31 140 122 24 346 -158 307z"/>
<path d="M10105 3078 c-4 -19 -142 -669 -161 -760 -4 -19 -26 -41 -79 -77 -40
-28 -75 -51 -78 -51 -2 0 -2 21 0 48 3 26 -2 135 -11 242 -8 107 -21 285 -27
395 -6 110 -13 202 -15 204 -4 4 -269 -26 -310 -36 -18 -4 -29 -26 -59 -116
-87 -262 -212 -527 -268 -570 -45 -34 -87 -118 -87 -172 0 -30 -6 -47 -23 -63
-76 -71 -177 -39 -177 57 0 15 36 198 80 407 44 208 83 391 86 407 l6 28 -163
-3 -163 -3 -11 -42 -10 -43 -17 31 c-31 53 -136 79 -243 60 -99 -18 -181 -65
-267 -152 -63 -64 -85 -95 -127 -181 -76 -156 -105 -273 -105 -433 -1 -145 13
-202 64 -274 116 -160 383 -134 529 52 31 40 34 39 45 -8 22 -94 105 -150 221
-148 91 1 164 29 242 92 l61 49 54 -52 c39 -38 68 -57 113 -71 117 -37 294
-16 397 47 40 25 138 95 237 169 36 27 66 48 67 46 2 -1 -36 -186 -83 -410
-48 -224 -84 -409 -81 -412 6 -6 318 65 330 74 5 5 117 514 118 539 0 4 6 0
13 -9 61 -79 247 -86 393 -14 98 48 179 135 239 258 55 113 82 216 97 370 25
248 -35 412 -168 458 -88 31 -237 9 -319 -47 -20 -13 -38 -24 -40 -24 -2 0 3
26 11 58 26 110 38 102 -146 102 -157 0 -160 0 -165 -22z m-1540 -204 c8 -4
22 -19 31 -35 14 -27 11 -47 -41 -292 -30 -144 -62 -282 -71 -306 -31 -83
-101 -141 -169 -141 -81 0 -105 42 -105 184 0 149 43 312 116 441 42 74 61 97
109 129 37 25 93 34 130 20z m2003 -30 c50 -35 64 -108 51 -269 -19 -227 -98
-408 -206 -472 -57 -33 -134 -36 -164 -6 l-21 20 67 319 c73 347 80 365 153
404 45 23 90 25 120 4z m-1113 -621 c-7 -56 -34 -104 -78 -137 -20 -15 -47
-21 -97 -24 -82 -5 -113 10 -136 65 -21 49 -13 63 29 56 42 -6 72 9 97 50 27
43 25 80 -6 116 -23 28 -24 32 -10 53 21 32 108 229 137 311 l24 67 23 -252
c13 -141 20 -276 17 -305z"/>
<path d="M11154 3009 c-14 -23 -166 -758 -171 -829 -10 -135 36 -233 131 -282
31 -16 59 -21 116 -21 177 2 323 109 421 309 21 44 39 86 39 92 0 8 -17 12
-45 12 -40 0 -47 -3 -57 -27 -45 -103 -114 -163 -187 -163 -68 0 -91 20 -91
78 1 26 38 223 84 437 46 215 81 393 79 398 -7 12 -311 9 -319 -4z"/>
<path d="M3383 996 c-146 -48 -246 -198 -228 -341 28 -224 260 -354 459 -256
158 78 226 259 156 417 -27 63 -102 138 -163 164 -64 28 -166 35 -224 16z"/>
<path d="M4280 720 l0 -160 68 0 c87 0 129 21 160 81 18 34 22 56 19 97 -7 97
-64 142 -179 142 l-68 0 0 -160z m156 124 c45 -22 64 -60 64 -129 0 -49 -4
-60 -34 -92 -31 -34 -38 -37 -100 -41 l-66 -4 0 141 0 141 51 0 c28 0 66 -7
85 -16z"/>
<path d="M4810 720 l0 -160 100 0 c60 0 100 4 100 10 0 6 -37 10 -90 10 l-90
0 0 70 0 70 80 0 c47 0 80 4 80 10 0 6 -33 10 -80 10 l-80 0 0 60 0 60 85 0
c50 0 85 4 85 10 0 6 -38 10 -95 10 l-95 0 0 -160z"/>
<path d="M5250 870 c0 -5 25 -10 55 -10 l55 0 0 -150 c0 -199 19 -201 22 -2
l3 147 53 3 c28 2 52 7 52 13 0 5 -51 9 -120 9 -73 0 -120 -4 -120 -10z"/>
<path d="M5781 858 c-5 -13 -20 -54 -34 -93 -14 -38 -37 -100 -51 -137 -18
-51 -22 -68 -12 -68 8 0 22 24 32 53 l19 52 70 3 71 3 18 -56 c11 -30 25 -55
33 -55 16 0 16 0 -1 41 -7 19 -35 89 -60 157 -48 123 -67 146 -85 100z m53
-82 c14 -37 26 -72 26 -77 0 -5 -25 -9 -55 -9 -30 0 -55 3 -55 8 0 11 52 153
56 150 1 -2 14 -34 28 -72z"/>
<path d="M6210 720 l0 -160 95 0 c57 0 95 4 95 10 0 6 -35 10 -85 10 l-85 0 0
150 c0 93 -4 150 -10 150 -6 0 -10 -60 -10 -160z"/>
<path d="M6670 720 l0 -160 95 0 c57 0 95 4 95 10 0 6 -35 10 -85 10 l-85 0 0
150 c0 93 -4 150 -10 150 -6 0 -10 -60 -10 -160z"/>
<path d="M7120 720 l0 -160 100 0 c60 0 100 4 100 10 0 6 -37 10 -90 10 l-90
0 0 70 0 70 80 0 c47 0 80 4 80 10 0 6 -33 10 -80 10 l-80 0 0 60 0 60 85 0
c50 0 85 4 85 10 0 6 -38 10 -95 10 l-95 0 0 -160z"/>
<path d="M7612 860 c-29 -27 -30 -82 -1 -109 11 -10 42 -24 67 -31 55 -14 92
-44 92 -77 0 -65 -98 -87 -152 -33 -36 37 -51 39 -36 4 25 -54 130 -74 182
-33 21 16 26 29 26 63 0 53 -16 69 -99 97 -74 25 -94 53 -67 94 13 19 25 25
54 25 41 0 82 -23 82 -46 0 -8 7 -14 15 -14 18 0 19 5 3 33 -19 36 -40 46 -94
47 -37 0 -56 -5 -72 -20z"/>
<path d="M8442 860 c-41 -25 -62 -73 -62 -141 0 -104 54 -161 148 -157 44 1
59 -3 97 -30 27 -19 47 -27 51 -21 3 6 -2 17 -12 24 -62 45 -60 39 -34 76 18
24 25 50 28 96 5 74 -8 113 -50 148 -38 32 -117 35 -166 5z m153 -33 c20 -20
36 -48 40 -70 18 -92 -37 -177 -113 -177 -96 0 -151 115 -102 215 23 48 48 63
104 64 30 1 45 -6 71 -32z"/>
<path d="M8940 778 c0 -168 27 -218 117 -218 58 0 98 22 112 61 13 38 15 259
2 259 -5 0 -11 -57 -12 -126 -4 -123 -5 -126 -32 -150 -46 -39 -123 -27 -146
23 -6 13 -11 75 -11 138 0 96 -3 115 -15 115 -12 0 -15 -18 -15 -102z"/>
<path d="M9480 720 l0 -160 100 0 c60 0 100 4 100 10 0 6 -37 10 -90 10 l-90
0 0 70 0 70 80 0 c47 0 80 4 80 10 0 6 -33 10 -80 10 l-80 0 0 60 0 60 85 0
c50 0 85 4 85 10 0 6 -38 10 -95 10 l-95 0 0 -160z"/>
<path d="M10280 720 c0 -100 4 -160 10 -160 6 0 10 30 10 69 l0 69 70 4 c81 4
107 22 117 81 5 31 1 40 -25 67 -29 28 -35 30 -106 30 l-76 0 0 -160z m166
115 c8 -10 14 -31 14 -45 0 -48 -21 -63 -94 -68 l-66 -4 0 72 0 72 66 -4 c50
-3 70 -9 80 -23z"/>
<path d="M10770 720 l0 -160 100 0 c60 0 100 4 100 10 0 6 -37 10 -90 10 l-90
0 0 70 0 70 80 0 c47 0 80 4 80 10 0 6 -33 10 -80 10 l-80 0 0 60 0 60 85 0
c50 0 85 4 85 10 0 6 -38 10 -95 10 l-95 0 0 -160z"/>
<path d="M11240 720 c0 -100 4 -160 10 -160 6 0 10 32 10 75 l0 75 58 0 c80 0
94 -13 100 -89 6 -79 22 -80 22 -1 0 47 -4 64 -20 80 l-21 21 21 17 c34 27 32
88 -4 118 -23 21 -38 24 -102 24 l-74 0 0 -160z m143 131 c47 -18 48 -88 2
-109 -14 -7 -48 -12 -75 -12 l-50 0 0 65 0 65 49 0 c27 0 61 -4 74 -9z"/>
<path d="M11740 720 l0 -160 68 0 c87 0 129 21 160 81 18 34 22 56 19 97 -7
97 -64 142 -179 142 l-68 0 0 -160z m156 124 c45 -22 64 -60 64 -129 0 -49 -4
-60 -34 -92 -31 -34 -38 -37 -100 -41 l-66 -4 0 141 0 141 51 0 c28 0 66 -7
85 -16z"/>
<path d="M12260 778 c0 -168 27 -218 117 -218 58 0 98 22 112 61 13 38 15 259
2 259 -5 0 -11 -57 -12 -126 -4 -123 -5 -126 -32 -150 -46 -39 -123 -27 -146
23 -6 13 -11 75 -11 138 0 96 -3 115 -15 115 -12 0 -15 -18 -15 -102z"/>
<path d="M12800 720 c0 -100 4 -160 10 -160 6 0 10 32 10 75 l0 75 58 0 c80 0
94 -13 100 -89 6 -79 22 -80 22 -1 0 47 -4 64 -20 80 l-21 21 21 17 c34 27 32
88 -4 118 -23 21 -38 24 -102 24 l-74 0 0 -160z m143 131 c47 -18 48 -88 2
-109 -14 -7 -48 -12 -75 -12 l-50 0 0 65 0 65 49 0 c27 0 61 -4 74 -9z"/>
<path d="M13371 858 c-5 -13 -20 -54 -34 -93 -14 -38 -37 -100 -51 -137 -18
-51 -22 -68 -12 -68 8 0 22 24 32 53 l19 52 70 3 71 3 18 -56 c11 -30 25 -55
33 -55 16 0 16 0 -1 41 -7 19 -35 89 -60 157 -48 123 -67 146 -85 100z m53
-82 c14 -37 26 -72 26 -77 0 -5 -25 -9 -55 -9 -30 0 -55 3 -55 8 0 11 52 153
56 150 1 -2 14 -34 28 -72z"/>
<path d="M13800 720 c0 -204 18 -217 22 -16 l3 144 90 -142 c50 -77 99 -142
108 -144 15 -3 17 11 17 157 0 203 -18 219 -22 20 l-3 -142 -92 142 c-53 81
-99 141 -108 141 -13 0 -15 -22 -15 -160z"/>
</g>
</svg>
